<svg xmlns="http://www.w3.org/2000/svg" viewBox="0 0 81.28 81.28"><defs><style>.cls-1{fill:#2d2d2d;}</style></defs><g id="Home1"><path class="cls-1" d="M73.15,0h-65A8.15,8.15,0,0,0,0,8.14v65a8.15,8.15,0,0,0,8.14,8.13h65a8.14,8.14,0,0,0,8.13-8.13v-65A8.15,8.15,0,0,0,73.15,0ZM40.64,24.39A16.25,16.25,0,1,1,24.39,40.64,16.29,16.29,0,0,1,40.64,24.39ZM10.16,73.15a1.92,1.92,0,0,1-2-2V36.57h8.53a13.5,13.5,0,0,0-.42,4.07,24.39,24.39,0,0,0,48.78,0,13.5,13.5,0,0,0-.42-4.07h8.54V71.12a1.92,1.92,0,0,1-2,2Zm63-54.85a1.91,1.91,0,0,1-2,2H63a1.92,1.92,0,0,1-2-2V10.16a1.92,1.92,0,0,1,2-2h8.13a1.91,1.91,0,0,1,2,2Zm0,0"/></g></svg>