<svg xmlns="http://www.w3.org/2000/svg" viewBox="0 0 82.69 67.2"><defs><style>.cls-1{fill:#2d2d2d;}</style></defs><g id="Home1"><path class="cls-1" d="M82.69,8a33.69,33.69,0,0,1-9.75,2.67A17,17,0,0,0,80.4,1.24,33.86,33.86,0,0,1,69.63,5.36,17,17,0,0,0,40.72,20.83,48.13,48.13,0,0,1,5.76,3.1,17,17,0,0,0,11,25.75a16.8,16.8,0,0,1-7.68-2.12v.22A17,17,0,0,0,16.93,40.48a16.86,16.86,0,0,1-4.47.59,16.67,16.67,0,0,1-3.19-.3A17,17,0,0,0,25.11,52.55,34,34,0,0,1,4,59.81a35.93,35.93,0,0,1-4-.23A48,48,0,0,0,26,67.2c31.21,0,48.27-25.85,48.27-48.27,0-.73,0-1.47,0-2.19A34.53,34.53,0,0,0,82.69,8Zm0,0"/></g></svg>