<?xml version="1.0" encoding="UTF-8" standalone="no"?>
<svg
   xmlns:dc="http://purl.org/dc/elements/1.1/"
   xmlns:cc="http://creativecommons.org/ns#"
   xmlns:rdf="http://www.w3.org/1999/02/22-rdf-syntax-ns#"
   xmlns:svg="http://www.w3.org/2000/svg"
   xmlns="http://www.w3.org/2000/svg"
   id="svg4043"
   version="1.1"
   viewBox="0 0 56.767586 56.767235"
   height="56.767235mm"
   width="56.767586mm">
  <defs
     id="defs4037">
    <clipPath
       id="clipPath56"
       clipPathUnits="userSpaceOnUse">
      <path
         id="path54"
         d="M 0,1024 H 1440 V 0 H 0 Z" />
    </clipPath>
  </defs>
  <metadata
     id="metadata4040">
    <rdf:RDF>
      <cc:Work
         rdf:about="">
        <dc:format>image/svg+xml</dc:format>
        <dc:type
           rdf:resource="http://purl.org/dc/dcmitype/StillImage" />
        <dc:title></dc:title>
      </cc:Work>
    </rdf:RDF>
  </metadata>
  <g
     transform="translate(-69.890015,-100.79495)"
     id="layer1">
    <g
       transform="matrix(0.33949036,0,0,-0.33949036,113.47663,135.69807)"
       id="g46">
      <path
         id="path48"
         style="fill:#11b9fc;fill-opacity:1;fill-rule:evenodd;stroke:none"
         d="M 0,0 V 37.745 L -18.07,18.895 Z" />
    </g>
    <g
       id="g50"
       transform="matrix(0.33949036,0,0,-0.33949036,15.254191,424.21715)">
      <g
         clip-path="url(#clipPath56)"
         id="g52">
        <g
           transform="translate(299.8569,846.4497)"
           id="g58">
          <path
             id="path60"
             style="fill:#11b9fc;fill-opacity:1;fill-rule:evenodd;stroke:none"
             d="m 0,0 h -20.992 l -17.879,19.738 -2.393,2.567 2.393,2.301 17.348,19.119 h 10.989 V 62.842 H 0 Z m -20.37,-25.13 c -4.666,-6.797 -14.516,-14.899 -34.945,-14.899 -20.429,0 -30.279,8.102 -34.944,14.899 -5.225,7.611 -5.285,15.32 -5.285,15.645 h 3.409 l 3.41,0.025 c 0.012,-0.944 0.673,-23.12 33.41,-23.12 13.94,0 24.137,4.122 29.49,11.92 3.814,5.556 3.921,11.12 3.921,11.175 h 6.818 c 0,-0.325 -0.06,-8.034 -5.284,-15.645 M -100.096,0 h -10.533 v 62.842 h 10.533 V 24.606 l 17.348,19.119 h 13.453 L -89.829,22.305 -68.498,0 h -13.719 l -17.879,19.738 z m 33.795,-10.798 h 1.327 c 4.426,0 6.107,2.035 6.107,7.08 v 46.823 h 10.533 V -3.01 c 0,-10.975 -4.515,-16.905 -15.666,-16.905 h -2.301 z m 12.745,73.64 c 4.071,0 6.993,-3.008 6.993,-7.08 0,-4.072 -2.922,-6.992 -6.993,-6.992 -4.071,0 -6.992,2.92 -6.992,6.992 0,4.072 2.921,7.08 6.992,7.08 m -1.759,40.229 c -44.435,0 -80.458,-36.022 -80.458,-80.458 0,-44.435 36.023,-80.457 80.458,-80.457 44.436,0 80.458,36.022 80.458,80.457 0,44.436 -36.022,80.458 -80.458,80.458" />
        </g>
      </g>
    </g>
  </g>
</svg>
